<svg xmlns="http://www.w3.org/2000/svg" version="1.1" xmlns:xlink="http://www.w3.org/1999/xlink" xmlns:svgjs="http://svgjs.dev/svgjs" width="1500" height="340" viewBox="0 0 1500 340"><g transform="matrix(1,0,0,1,-0.9090909090909918,-1.1653483992466818)"><svg viewBox="0 0 396 90" data-background-color="#030712" preserveAspectRatio="xMidYMid meet" height="340" width="1500" xmlns="http://www.w3.org/2000/svg" xmlns:xlink="http://www.w3.org/1999/xlink"><g id="tight-bounds" transform="matrix(1,0,0,1,0.2400000000000091,0.30847457627118047)"><svg viewBox="0 0 395.52 89.38305084745764" height="89.38305084745764" width="395.52"><g><svg viewBox="0 0 395.52 89.38305084745764" height="89.38305084745764" width="395.52"><g><svg viewBox="0 0 395.52 89.38305084745764" height="89.38305084745764" width="395.52"><g id="textblocktransform"><svg viewBox="0 0 395.52 89.38305084745764" height="89.38305084745764" width="395.52" id="textblock"><g><svg viewBox="0 0 395.52 89.38305084745764" height="89.38305084745764" width="395.52"><g transform="matrix(1,0,0,1,0,0)"><svg width="395.52" viewBox="3.33 -32.29 147.48999999999998 33.33" height="89.38305084745764" data-palette-color="#ffffff"><path d="M20 0L3.33 0 3.33-31.25 20-31.25 20-25.83 9.38-25.83 9.38-21.04 17.57-21.04 17.57-15.83 9.38-15.83 9.38-5.63 20-5.63 20 0ZM35.28 1.04L35.21 1.04 22.08-31.25 28.68-31.25 33.78-18.4Q34.2-17.33 34.62-16.3 35.03-15.28 35.41-14.03L35.41-14.03Q35.76-15.24 36.16-16.23 36.56-17.22 37.01-18.4L37.01-18.4 42.12-31.25 48.4-31.25 35.28 1.04ZM68.61 0L51.94 0 51.94-31.25 68.61-31.25 68.61-25.83 57.98-25.83 57.98-21.04 66.18-21.04 66.18-15.83 57.98-15.83 57.98-5.63 68.61-5.63 68.61 0ZM98.4-31.25L98.4 1.04 79.65-17.67 79.65 0 73.81 0 73.81-32.29 92.56-13.61 92.56-31.25 98.4-31.25ZM110.82-25.63L103.18-25.63 103.18-31.25 124.92-31.25 124.92-25.63 117.28-25.63 117.28 0 110.82 0 110.82-25.63ZM141.83 0L135.58 0 135.58-14.79 126.58-31.25 133.6-31.25 137.28-24.24Q137.66-23.47 138.08-22.69 138.49-21.91 138.88-20.83L138.88-20.83Q139.29-21.91 139.69-22.69 140.09-23.47 140.51-24.24L140.51-24.24 144.22-31.25 150.82-31.25 141.83-14.79 141.83 0Z" opacity="1" transform="matrix(1,0,0,1,0,0)" fill="#ffffff" class="wordmark-text-0" data-fill-palette-color="primary" id="text-0"></path></svg></g></svg></g></svg></g></svg></g></svg></g><defs></defs></svg><rect width="395.52" height="89.38305084745764" fill="none" stroke="none" visibility="hidden"></rect></g></svg></g></svg>